<?xml version="1.0" ?><svg height="128" viewBox="0 0 128 128" width="128" xmlns="http://www.w3.org/2000/svg"><title/><path d="M23.89,82.22C14.57,84.77,9,88.88,9,93.08A6.61,6.61,0,0,0,10.71,97c2.75,3.56-.92,6.27-1,8.48-.18,3,4.71,5.5,11.34,5.5a19.16,19.16,0,0,0,9.67-2.24,12,12,0,0,1,8.21-1.54,169.07,169.07,0,0,0,19.46,1.69,41.64,41.64,0,0,1,20.3,6.17A24.52,24.52,0,0,0,91,118c8.84,0,16-3.58,16-8a4.1,4.1,0,0,0-.06-.7,7,7,0,0,1,4-7.62c5.56-2.48,8.78-5.43,8.78-8.6,0-5.55-9.75-11.08-24.85-13.29C77.32,77.22,43,77,23.89,82.22Z" style="fill: #a52525"/><path d="M100,80.71c-17.17,32.66-92,7.48-64.76,0C23.49,80.32,2.88,88.13,10.71,97c3.34,3.79-1,6.14-1,8.48,0,3,4.71,5.5,11.34,5.5,10.43,0,10-5,17.88-3.78,19.72,2.95,26.29-.32,39.76,7.86,9.95,6.05,29.66,2,28.3-5.78a7,7,0,0,1,4-7.62C128,94.09,118.07,84.56,100,80.71Z" style="fill: #e02222"/><path d="M119.75,93c0,2.91-2.6,5.92-8.78,8.68a7,7,0,0,0-4,7.62c1.36,7.8-18.35,11.83-28.3,5.78-13.47-8.18-20-4.91-39.76-7.86C31,106,31.43,111,21,111c-6.63,0-11.34-2.46-11.34-5.5,0-2.34,4-5,1-8.48A6.3,6.3,0,0,1,9,93h8.55A7.24,7.24,0,0,1,24,97h0a7.24,7.24,0,0,0,6.47,4H93a10,10,0,0,0,8-4h0a10,10,0,0,1,8-4Z" style="fill: #e03f3f"/><path d="M92,115.44a1.5,1.5,0,0,1,0-3c5.29,0,8.35-1.51,9.39-2.23a13.56,13.56,0,0,1,7.93-13.52,1.5,1.5,0,1,1,1.22,2.74,10.55,10.55,0,0,0-6.09,11.14,1.5,1.5,0,0,1-.27,1.11C103.06,113.24,98.53,115.44,92,115.44Z" style="fill: #f88"/><path d="M27,107.52a1.5,1.5,0,0,1-.55-2.9,4.9,4.9,0,0,0,.8-.38,18.52,18.52,0,0,1,12.61-2.45,158,158,0,0,0,16,1.51,1.5,1.5,0,1,1-.14,3,161.08,161.08,0,0,1-16.31-1.54,15.52,15.52,0,0,0-10.58,2,8,8,0,0,1-1.29.63A1.49,1.49,0,0,1,27,107.52Z" style="fill: #ffb3b3"/><path d="M104.45,51a41,41,0,1,1-41-41A40.95,40.95,0,0,1,104.45,51Z" style="fill: #efdada"/><path d="M102.64,63C96.12,60.3,79.67,81.51,63,81.72c-6.63,0-9.73-4-15.21-.75-3.37,2-10.52-1.17-12.46-2.33a1.45,1.45,0,0,0-1.77.23A40.4,40.4,0,0,0,66,91.77V104a29.87,29.87,0,0,1,11,3.4V89.56A40.39,40.39,0,0,0,102.64,63Z" style="fill: #e23737"/><path d="M97.08,42.42a33.58,33.58,0,1,1-51.2-28.58,42.29,42.29,0,0,1,35.24,0A33.53,33.53,0,0,1,97.08,42.42Z" style="fill: #f5e9e9"/><circle cx="63.5" cy="41.45" r="25.45" style="fill: #fff"/><path d="M68.68,23.62c14.44,5.06,17.05,21.62,7.83,30.84a18.4,18.4,0,1,1-7.89-30.68" style="fill: #3c618e"/><path d="M70.77,24.9c10.59,3.71,12.5,15.85,5.74,22.61A13.49,13.49,0,1,1,70.72,25" style="fill: #3a6e99"/><path d="M78.52,79.82A1.5,1.5,0,0,1,77.79,77,120.39,120.39,0,0,0,89.54,69.2c6.21-4.5,10.31-7.48,13.26-6.11a1.5,1.5,0,0,1-1.26,2.72c-1.36-.63-6.28,2.95-10.24,5.81a122.64,122.64,0,0,1-12,8A1.5,1.5,0,0,1,78.52,79.82Z" style="fill: #f88"/><path d="M62.76,84.72a20.37,20.37,0,0,1-7.7-1.47,1.5,1.5,0,0,1,1.12-2.78A18.78,18.78,0,0,0,68,81.06,1.5,1.5,0,0,1,68.72,84,25.29,25.29,0,0,1,62.76,84.72Z" style="fill: #f88"/><path d="M66,104h5V90.25a2,2,0,0,0-2.53-1.93L66,89Z" style="fill: #f88"/><path d="M78,109.5a1.49,1.49,0,0,1-.8-.23c-.31-.19-.61-.38-.93-.55a28.62,28.62,0,0,0-10.39-3.22,1.5,1.5,0,0,1,.23-3,31.18,31.18,0,0,1,11.62,3.59c.36.2.71.42,1.07.64A1.5,1.5,0,0,1,78,109.5Z" style="fill: #ffb3b3"/><path d="M71.21,39.53a7.71,7.71,0,1,1-7.71-7.72,7.55,7.55,0,0,1,2.24.34A2.5,2.5,0,1,0,69,34.53a2.22,2.22,0,0,0,0-.45A7.69,7.69,0,0,1,71.21,39.53Z" style="fill: #31352e"/><path d="M67.21,32.07a2.55,2.55,0,1,1-2.51.67,2.56,2.56,0,0,1,2.51-.67" style="fill: #fff"/><g><path d="M67.79,26.66a3,3,0,1,0,1.66-5.76,21.4,21.4,0,1,0-6,42c18.91,0,28.64-23,15.13-36.53a3,3,0,0,0-4.24,4.24,15.39,15.39,0,1,1-6.6-3.9Z" style="fill: #31352e"/><path d="M98.53,77.47A44,44,0,0,0,81.85,11C52.76-2.42,19.55,19,19.55,51A44,44,0,0,0,63,94.88V97c0,4,6,3.94,6,0s.7-8.29-3.12-8.16C42.34,89.8,25.55,71.57,25.55,51c0-27.54,28.67-46.09,53.79-34.49A38.07,38.07,0,0,1,101.45,51c0,27.78-25.43,35.45-26.52,36.49C73.54,88.77,74,90,74,100c0,4,6,4,6,0V91.68a43.82,43.82,0,0,0,14-9.05,3,3,0,0,0,.38.11c16.44,3.13,22.41,7.9,22.41,10.34,0,1.32-1.84,3.56-7,5.87A10,10,0,0,0,104,109.81a1.1,1.1,0,0,1,0,.19c0,4-15.46,7.59-23.8,2.52-14.23-8.65-21.47-5.36-40.87-8.26-9.12-1.38-9.9,4.25-18.15,3.75-7.31-.42-8.32-2.21-8.33-2.23-.64-1.23,4.8-5,.17-10.49a3,3,0,0,1-1-2.21c0-2,3.95-5.28,12.77-8,3.79-1.17,2-6.91-1.76-5.73C9,83.67,6,89.2,6,93.08s2.23,5.67,2.9,6.67A4.82,4.82,0,0,1,8.28,101c-3.51,5.67-1.4,12.18,12.54,13,10.37.59,10.84-4.83,17.61-3.81,19.67,2.94,25.94-.27,38.64,7.46,11.58,7,34.78,2.5,32.82-8.85a4,4,0,0,1,2.3-4.37C128.7,97,127.38,83.82,98.53,77.47Z" style="fill: #31352e"/></g></svg>